<svg xmlns="http://www.w3.org/2000/svg" width="110" height="30" viewBox="0 0 110 30">
  <g fill="none" fill-rule="evenodd">
    <path fill="#7E8C9B" d="M38.4347085 14.7301311L40.3538045 14.7301311 40.3538045 21.696922C40.3538045 23.3958938 40.445409 24.5679842 40.6282452 25.2067299 40.9025616 26.1212836 41.4265842 26.8436791 42.2001887 27.3739164 42.9737932 27.9041537 43.8961774 28.1676565 44.9674655 28.1676565 46.0386294 28.1676565 46.9469684 27.9103684 47.6942226 27.3925605 48.439861 26.8778599 48.9546859 26.1988429 49.2383243 25.3584927 49.4306068 24.7818938 49.5265616 23.5602102 49.5265616 21.696922L49.5265616 14.7301311 51.4877932 14.7301311 51.4877932 22.0533966C51.4877932 24.1090915 51.247409 25.6592836 50.7682565 26.7011141 50.2877367 27.7428203 49.5654655 28.5581876 48.6011944 29.1504475 47.6369232 29.7394757 46.4277932 30.034052 44.9751718 30.034052 43.5210588 30.034052 42.3072056 29.7394757 41.3336124 29.1504475 40.3600192 28.5581876 39.6345164 27.7366056 39.1539966 26.6824701 38.6734768 25.6252271 38.4347085 24.0377469 38.4347085 21.9170463L38.4347085 14.7301311zM55.7524497 14.7301311L57.6715458 14.7301311 57.6715458 17.4058034C58.4389356 16.3827412 59.2900994 15.6168429 60.2216814 15.1083571 61.1550034 14.5999955 62.1688678 14.3456904 63.2663819 14.3456904 64.3810486 14.3456904 65.3716701 14.6309446 66.235139 15.1983458 67.0986079 15.7657469 67.7357379 16.5284136 68.1481446 17.4864701 68.5589356 18.4476339 68.7650147 19.9420181 68.7650147 21.9697469L68.7650147 29.6496113 66.8443028 29.6496113 66.8443028 22.5340407C66.8443028 20.8133175 66.7730825 19.6660859 66.6318847 19.0924701 66.4086531 18.1034644 65.9824497 17.3624249 65.3515345 16.863261 64.7204949 16.3640972 63.8972972 16.1160068 62.8834328 16.1160068 61.7222802 16.1160068 60.6821898 16.5005718 59.762913 17.2663458 58.8435119 18.0352271 58.2389469 18.9870689 57.9458621 20.1187638 57.763026 20.8598034 57.6715458 22.2146056 57.6715458 24.1772045L57.6715458 29.6496113 55.7524497 29.6496113 55.7524497 14.7301311zM72.5895593 29.649661L74.5086554 29.649661 74.5086554 14.7301808 72.5895593 14.7301808 72.5895593 29.649661zM73.5430169 8.5880791C73.9800339 8.5880791 74.3520452 8.74319774 74.6622825 9.05318644 74.9706554 9.36628249 75.1256497 9.74152542 75.1256497 10.1786667 75.1256497 10.6095932 74.9706554 10.9784972 74.6622825 11.2886102 74.3520452 11.6018305 73.9800339 11.7568249 73.5430169 11.7568249 73.1150734 11.7568249 72.7461695 11.6018305 72.4360565 11.2886102 72.1275593 10.9784972 71.972565 10.6095932 71.972565 10.1786667 71.972565 9.74152542 72.1275593 9.36628249 72.4360565 9.05318644 72.7461695 8.74319774 73.1150734 8.5880791 73.5430169 8.5880791L73.5430169 8.5880791zM85.5556508 16.224565C83.9589729 16.224565 82.5870181 16.8168249 81.441278 17.9950056 80.2941706 19.1731864 79.7206791 20.5993333 79.7206791 22.2735706 79.7206791 23.352565 79.9825661 24.3571073 80.5049729 25.2903051 81.0273797 26.2203955 81.7343627 26.9429153 82.6241819 27.4482938 83.5140011 27.9567797 84.4907017 28.2109605 85.5556508 28.2109605 86.6192328 28.2109605 87.595809 27.9567797 88.4856282 27.4482938 89.3754475 26.9429153 90.0824305 26.2203955 90.6048373 25.2903051 91.1272441 24.3571073 91.3892554 23.352565 91.3892554 22.2735706 91.3892554 20.5993333 90.814148 19.1731864 89.6623175 17.9950056 88.5103627 16.8168249 87.1416395 16.224565 85.5556508 16.224565M85.5619898 14.3457401C87.8609277 14.3457401 89.7646113 15.1797514 91.2760237 16.8415593 92.6495944 18.3608023 93.3364418 20.1559774 93.3364418 22.2301921 93.3364418 24.3168362 92.6108147 26.1368701 91.159809 27.6962599 89.7071876 29.255774 87.8422836 30.0341017 85.5619898 30.0341017 83.2722497 30.0341017 81.4026226 29.255774 79.9500011 27.6962599 78.4991198 26.1368701 77.7734927 24.3168362 77.7734927 22.2301921 77.7734927 20.1652994 78.4602158 18.3732316 79.8337864 16.857096 81.3451989 15.1828588 83.2536056 14.3457401 85.5619898 14.3457401M96.8879876 14.7301311L98.8070836 14.7301311 98.8070836 17.4058034C99.5744734 16.3827412 100.425637 15.6168429 101.357219 15.1083571 102.290541 14.5999955 103.304406 14.3456904 104.40192 14.3456904 105.516586 14.3456904 106.507208 14.6309446 107.370677 15.1983458 108.234146 15.7657469 108.871276 16.5284136 109.283682 17.4864701 109.694473 18.4476339 109.900553 19.9420181 109.900553 21.9697469L109.900553 29.6496113 107.979841 29.6496113 107.979841 22.5340407C107.979841 20.8133175 107.90862 19.6660859 107.767423 19.0924701 107.544191 18.1034644 107.117988 17.3624249 106.487072 16.863261 105.856033 16.3640972 105.032835 16.1160068 104.018971 16.1160068 102.857818 16.1160068 101.817728 16.5005718 100.898451 17.2663458 99.9790497 18.0352271 99.3744847 18.9870689 99.0814 20.1187638 98.8985638 20.8598034 98.8070836 22.2146056 98.8070836 24.1772045L98.8070836 29.6496113 96.8879876 29.6496113 96.8879876 14.7301311z"/>
    <polygon fill="#2510ED" points=".012 5.471 5.687 5.471 5.687 0 .012 0"/>
    <path fill="#2510ED" d="M33.8612068,13.8700927 C33.8512633,13.7630757 33.840574,13.6559345 33.8287661,13.5489175 C33.7960768,13.2491209 33.7580429,12.9499458 33.7141672,12.6516407 C33.6717831,12.3629062 33.6239299,12.0747932 33.5701107,11.7879232 C33.5180316,11.5100023 33.4603593,11.2330757 33.3968452,10.9575164 C33.3350712,10.690409 33.2675797,10.4246689 33.1938734,10.1606689 C33.1225288,9.90437514 33.0452181,9.64969718 32.9616927,9.3971322 C32.8881107,9.17464633 32.8095571,8.95390056 32.7260316,8.73501921 C32.3898169,7.85439774 31.9871051,7.04947119 31.5176475,6.32023955 L31.5145401,6.31551638 C30.1940429,4.18350508 28.5756136,2.59627345 26.6271842,1.60602486 C24.5044949,0.528770621 21.2600542,-0.00718418079 16.8936136,7.49126265e-05 L10.1209695,0.0117084746 L10.1578847,21.7334147 L15.8337605,21.7238441 L15.8061672,5.51456723 L17.7465175,5.51133559 C21.2992068,5.5052452 23.8799186,6.29239774 25.489026,7.86993446 C26.2347887,8.60339209 26.7886418,9.49134689 27.2242915,10.474635 C27.7288,11.7962508 27.9826079,13.4026237 27.9858395,15.293878 C27.9865853,15.7282847 27.9736588,16.1628158 27.943704,16.5962282 C27.9157379,17.0005559 27.8731051,17.4038893 27.8126983,17.8044881 C27.7561446,18.178861 27.6840542,18.5509966 27.5933198,18.9185333 C27.5083028,19.2632 27.4067548,19.6040136 27.2863141,19.937991 C27.2451729,20.0518441 27.2017944,20.1649514 27.1561785,20.2771887 C27.1172746,20.3723977 27.0847096,20.4705898 27.0392181,20.5630644 C26.9957153,20.651313 26.9443819,20.7368271 26.8954102,20.8224655 C26.7974667,20.9936181 26.6940542,21.1619119 26.5848,21.3263525 C26.3780994,21.6377085 26.1502689,21.9353921 25.8994441,22.2126915 C25.6627887,22.4745785 25.4056249,22.7180701 25.1286983,22.9369514 C24.8604723,23.1491209 24.5739751,23.3381718 24.2725627,23.499878 C24.2412407,23.5166576 24.2095458,23.533313 24.1777266,23.5495955 C23.0014102,24.1500588 21.1063028,24.4525898 18.4933989,24.4569401 L15.8383593,24.4614147 L5.70344407,24.4786915 L5.67572655,8.22852203 L-2.48587571e-05,8.23809266 L0.0371389831,30.0629627 L4.40345537,30.0555051 L5.7128904,30.0532678 L17.0474893,30.0340023 C20.9366418,30.0274147 23.6701107,29.7778328 25.2461559,29.2855051 C26.8229469,28.7930531 28.2867548,27.9052226 29.6374554,26.6242508 C30.9893989,25.3409175 32.0475119,23.7290757 32.8122915,21.7888497 C33.5768226,19.8486237 33.9577831,17.7208384 33.9539589,15.4061153 C33.9533085,15.0956294 33.9342915,14.785765 33.9112972,14.4762734 C33.8962576,14.2739232 33.8800994,14.0719458 33.8612068,13.8700927"/>
  </g>
</svg>
