<svg width="229" height="229" viewBox="0 0 229 229" fill="none" xmlns="http://www.w3.org/2000/svg">
<circle cx="114.047" cy="114.047" r="109.522" fill="white"/>
<path d="M114.5 0C51.2657 0 0 51.2589 0 114.5C0 177.741 51.2657 229 114.5 229C177.734 229 229 177.734 229 114.5C229 51.2657 177.734 0 114.5 0ZM114.5 214.298C96.5094 214.298 81.9237 202.281 81.9237 187.456H147.076C147.076 202.274 132.484 214.298 114.5 214.298ZM168.307 178.57H60.6789V159.045H168.239V178.57H168.307ZM167.924 149.008H60.994L59.9321 147.775C48.9158 134.395 46.3193 127.414 43.805 120.303C43.7639 120.07 57.1644 123.043 66.6666 125.181C70.6613 126.076 74.6746 126.887 78.7038 127.613C71.8391 119.57 67.7628 109.341 67.7628 98.8867C67.7628 75.936 85.3697 55.8764 79.012 39.667C85.1916 40.1671 91.8028 52.7112 92.2481 72.3255C98.825 63.248 101.565 46.6618 101.565 36.495C101.565 25.9651 108.505 13.7362 115.439 13.3183C109.252 23.5125 117.042 32.2543 123.961 53.9307C126.565 62.0833 126.222 75.7853 128.229 84.4654C128.894 66.4131 131.997 40.0712 143.452 30.9869C138.403 42.428 144.206 56.767 148.166 63.6522C154.564 74.7645 158.442 83.1774 158.442 99.1128C158.442 109.8 154.503 119.844 147.85 127.702C155.414 126.284 160.634 125.003 160.634 125.003L185.188 120.207C185.188 120.207 181.626 134.868 167.91 149.008H167.924Z" fill="#DA4E31"/>
</svg>
